<?xml version="1.0" encoding="UTF-8"?>
<!DOCTYPE svg PUBLIC "-//W3C//DTD SVG 1.1//EN" "http://www.w3.org/Graphics/SVG/1.1/DTD/svg11.dtd">
<!-- Creator: CorelDRAW X7 -->
<svg xmlns="http://www.w3.org/2000/svg" xml:space="preserve" width="165mm" height="180mm" version="1.1" style="shape-rendering:geometricPrecision; text-rendering:geometricPrecision; image-rendering:optimizeQuality; fill-rule:evenodd; clip-rule:evenodd"
viewBox="0 0 16500 18000"
 xmlns:xlink="http://www.w3.org/1999/xlink">
 <defs>
  <style type="text/css">
   <![CDATA[
    .str3 {stroke:black;stroke-width:0.77}
    .str4 {stroke:#2B2A29;stroke-width:0.77}
    .str2 {stroke:black;stroke-width:7.62}
    .str0 {stroke:#015BA6;stroke-width:7.62}
    .str1 {stroke:#2B2A29;stroke-width:7.62}
    .fil4 {fill:none}
    .fil5 {fill:#0066FF}
    .fil1 {fill:#1A4F9C}
    .fil3 {fill:#EBECEC}
    .fil2 {fill:#FEFEFE}
    .fil0 {fill:#373435;fill-rule:nonzero}
    .fil7 {fill:#015BA6;fill-rule:nonzero}
    .fil6 {fill:#FEFEFE;fill-rule:nonzero}
   ]]>
  </style>
 </defs>
 
 <g id="cirextazul">
  <metadata id="CorelCorpID_1Corel-Layer"/>
  <circle class="fil1 str0" cx="8091" cy="7516" r="6985"/>
 </g>
 <g id="circontazul">
  <metadata id="CorelCorpID_2Corel-Layer"/>
  <path class="fil2 str0" d="M8065 13017c3040,0 5504,-2460 5504,-5495 0,-3035 -2464,-5495 -5504,-5495 -3039,0 -5503,2460 -5503,5495 0,3035 2464,5495 5503,5495z"/>
 </g>
 <g id="circulo_x0020_gris">
  <metadata id="CorelCorpID_3Corel-Layer"/>
  <path class="fil3 str1" d="M8091 12812c2925,0 5296,-2371 5296,-5296 0,-2925 -2371,-5296 -5296,-5296 -2925,0 -5296,2371 -5296,5296 0,2925 2371,5296 5296,5296z"/>
 </g>
 <g id="Capa_x0020_1_0">
  <metadata id="CorelCorpID_4Corel-Layer"/>
  <path class="fil4 str2" d="M13152 7428l-842 13m701 1257l141 -1270m-1014 -1112l810 -238m-513 -1171l-724 433m1237 738l-513 -1171m-1434 -455l583 -611m-3309 2909l1049 -4334m-1314 -147l2 175m14 843l-1125 171m4810 1882l-324 -468 -386 -420m1309 2989l-48 -568 -124 -557m-361 3243l243 -516 171 -543m-1934 2627l468 -325 420 -385m-2989 1308l568 -47 557 -124m-3242 -362l515 243 543 172m-2626 -1934l324 467 386 421m-1190 -4049l-94 544 -24 551 50 551 121 538m362 -3243l-415 1059m4247 1758l213 -74m244 -199l115 -193m59 -310l-36 -222m-154 -276l-170 -146m-1145 933l110 196m2670 -4159l-499 -237 -525 -169 -543 -100 -551 -27m784 4517l1078 447m666 -5168l1030 758m-5036 4849l-1135 871m-2038 -1982l-345 6m7524 -4502l-410 737m-1869 2930l-202 -22 -199 31 -185 81 -158 127 -120 163 -75 187 -22 201m-4143 -1204l-169 -41m1403 -820l194 108m-172 -1548l-127 -120m1625 -8l115 191m624 -1427l-49 -168m1411 806l3 222m-2104 376l-888 710m2327 3188l-2426 927m2536 -731l-926 711m1165 -504l-1264 2270m1474 -2190l-563 2536m878 -2532l491 2551m-278 -2625l1198 2305m-954 -2504l2015 1639m-1900 -1832l2399 995m-2340 -1305l2597 -41m-2633 -181l2477 -781m-2631 505l1964 -1700m-2134 1554l1397 -2191m737 637l-346 -345 -391 -292m1560 2794l-43 -486 -113 -476m-600 3145l281 -401 218 -436m-2480 2022l472 -127 448 -193m-3200 -45l443 206 468 140m-2422 -2092l206 443 269 408m2300 -1375l210 80m-2521 -5255l91 151m1471 509l-63 -214m-1703 1291l-161 -154m-1521 364l153 85m538 1522l-216 -53m-616 1067l3939 -61m-3270 1178l-810 237m513 1172l724 -432m-1237 -740l513 1172m1434 456l-582 610m1030 758l410 -737m-1440 -21l1030 758m1468 -322l-198 820m1271 141l-14 -843m-1257 702l1271 141m1111 -1014l237 810m1172 -513l-433 -724m-739 1237l1172 -513m455 -1434l611 582m757 -1030l-736 -410m-21 1440l757 -1030m-322 -1469l820 198"/>
 </g>
 <g id="medcircletras">
  <metadata id="CorelCorpID_5Corel-Layer"/>
  <path class="fil4 str3" d="M9085 3405l-505 -90 -512 -29 -512 34 -503 96 -489 156 -466 214 -436 270 -400 320 -359 366 -312 407 -260 443 -204 470 -146 492 -85 506 -24 512m0 0l-842 13 24 -577 89 -569 154 -557 215 -535 276 -507 330 -472 383 -431 430 -386 470 -333 505 -279 534 -219 555 -157 569 -92 576 -28 576 39 567 104 -198 819"/>
  <polygon class="fil5 str4" points="4331,5592 4591,5149 4903,4742 5262,4376 5662,4056 6098,3786 6564,3572 7053,3416 7556,3320 8068,3286 8580,3315 9085,3405 9283,2586 8716,2482 8140,2443 7564,2471 6995,2563 6440,2720 5906,2939 5401,3218 4931,3551 4501,3937 4118,4368 3788,4840 3512,5347 3297,5882 3143,6439 3054,7008 3030,7585 3872,7572 3896,7060 3981,6554 4127,6062 "/>
  <path class="fil5 str4" d="M9084 3407l-809 3343 -202 -22 -199 31 -185 81 -158 127 -120 163 -75 187 -22 201 -3439 54 -2 35 50 551 121 538 -810 237 513 1172 724 -432 324 467 386 421 -582 610 1030 758 410 -737 515 243 543 172 -198 820 1271 141 -14 -843 568 -47 557 -124 237 810 1172 -513 -433 -724 468 -325 420 -385 611 582 757 -1030 -736 -410 243 -516 171 -543 820 198 141 -1270 -842 13 -48 -568 -124 -557 810 -238 -513 -1171 -724 433 -324 -468 -386 -420 583 -611 -1030 -758 -410 737 -499 -237 -525 -169 -36 -7zm822 1252l391 292 346 345 -1964 1700 -170 -146 1397 -2191zm-1668 3611l213 -74 1198 2305 -448 193 -472 127 -491 -2551zm595 -998l2477 -781 113 476 43 486 -2597 41 -36 -222zm-138 725l115 -193 2399 995 -218 436 -281 401 -2015 -1639zm-1331 -214l110 196 -926 711 -1135 871 -269 -408 -206 -443 2426 -927zm559 483l-563 2536 -468 -140 -443 -206 1264 -2270 210 80z"/>
 </g>
 <g id="Letras">
  <metadata id="CorelCorpID_6Corel-Layer"/>
  <path class="fil6" d="M3515 3127l-179 183 91 93 179 -183c14,-14 22,-26 23,-35 1,-9 -4,-19 -14,-30l-37 -37c-10,-10 -19,-15 -28,-14 -9,1 -21,9 -35,23zm26 553l-342 -350 293 -300c27,-28 52,-42 75,-44 22,-2 45,9 69,33l76 78c23,24 34,47 32,71 -1,23 -16,48 -43,76l-215 220 134 136 -79 80zm8957 8026l-185 189 175 179 185 -189 -60 -61 83 -56 33 34c25,26 38,49 37,69 -1,20 -15,45 -44,74l-176 179c-28,29 -52,44 -71,45 -19,1 -42,-12 -68,-38l-148 -151c-25,-27 -38,-49 -37,-69 1,-20 15,-45 44,-74l175 -179c29,-30 53,-45 73,-46 19,0 41,12 67,38l27 28 -59 81 -51 -53zm-8588 -8543l245 -211 -159 -194 -245 211 159 194zm-220 -115c-23,-28 -33,-52 -31,-72 2,-19 19,-42 50,-69l235 -202c32,-27 57,-40 76,-39 19,2 40,16 64,45l134 164c23,28 34,52 31,72 -2,19 -19,43 -50,69l-235 202c-31,27 -56,40 -75,39 -20,-2 -41,-16 -64,-45l-135 -164zm8288 9120l-232 199 160 194 231 -199 -54 -66 -121 104 -45 -55 193 -166 88 107c23,28 34,52 32,72 -3,20 -20,43 -50,69l-221 189c-31,27 -56,40 -75,39 -19,-1 -41,-16 -64,-44l-134 -165c-24,-28 -34,-52 -32,-71 3,-20 19,-43 50,-70l220 -189c31,-26 56,-39 75,-38 20,0 40,14 62,40l6 8 -62 75 -27 -33zm354 136l-255 -312 74 -63 255 311 -74 64zm-7964 -9834l-180 129 63 92 180 -129c14,-10 22,-19 25,-27 2,-7 0,-16 -7,-26l-26 -38c-7,-10 -14,-15 -22,-15 -8,-1 -19,4 -33,14zm-70 461l-228 -333 293 -210c27,-19 49,-28 68,-26 19,1 37,14 52,37l54 78c15,22 20,43 15,61 -5,19 -21,38 -48,57l-44 32 240 15 -113 82 -222 -29 -75 54 86 126 -78 56zm7137 9974l262 -187 -142 -208 -262 188 142 207zm-209 -133c-21,-31 -29,-55 -25,-75 4,-19 22,-41 55,-64l252 -181c33,-24 60,-34 79,-31 19,3 38,19 59,50l120 175c21,30 29,55 25,74 -4,20 -22,41 -55,65l-252 180c-33,24 -59,35 -78,32 -20,-3 -39,-20 -60,-50l-120 -175zm72 -233l-15 -188 83 -60 -19 212 -49 36zm-6427 -10483l162 286 238 -141 -161 -286 85 -50 151 269c18,32 24,57 18,76 -6,20 -26,40 -61,60l-227 134c-35,21 -62,29 -81,25 -19,-4 -38,-23 -56,-55l-151 -268 83 -50zm598 120l-168 -368 61 -28 416 98 -111 -244 79 -38 168 368 -61 29 -417 -103 113 248 -80 38zm5520 11050l-168 -368 89 -42 136 299 282 -135 32 69 -371 177zm-5054 -11271l86 -464 87 -33 361 298 -102 38 -77 -66 -247 92 -17 101 -91 34zm122 -219l171 -64 -143 -126 -28 190zm3836 11910l-136 -382 63 -23 407 135 -90 -253 82 -30 135 381 -62 24 -407 -140 91 257 -83 31zm604 -305l301 -112 -85 -238 -301 112 85 238zm-168 -185c-13,-35 -14,-61 -6,-78 9,-18 32,-34 70,-48l289 -108c39,-14 66,-17 84,-9 18,8 33,29 45,64l71 201c13,35 15,61 6,78 -9,18 -32,34 -70,48l-289 108c-38,14 -66,17 -84,9 -17,-7 -32,-29 -45,-64l-71 -201zm-3364 -11511l-84 -488 487 -88 15 84 -377 68 19 108 220 -39 14 83 -220 40 21 121 381 -69 16 91 -492 89zm1894 12218l-69 -400 420 -76 12 71 -323 58 15 87 188 -34 12 69 -188 34 17 99 328 -60 12 75 -424 77zm-1127 -12374l124 -11c68,-6 114,-21 140,-43 25,-23 36,-58 32,-106 -4,-42 -18,-72 -42,-90 -24,-19 -60,-26 -106,-22l-170 15 22 257zm-91 84l-35 -405 266 -23c77,-7 137,5 181,36 44,31 69,79 74,143 6,68 -11,121 -52,159 -40,38 -104,60 -192,68l-242 22zm924 11917l34 405 -112 10 -34 -405 -222 20 -8 -88 557 -50 7 88 -222 20zm-168 -12355l-29 329 275 25 28 -329 98 9 -27 308c-3,37 -12,62 -28,74 -16,12 -44,16 -84,13l-261 -24c-41,-3 -67,-12 -80,-27 -13,-15 -18,-41 -15,-77l26 -309 97 8zm-914 12665l125 11c67,6 116,1 145,-17 28,-18 45,-51 49,-99 4,-42 -5,-74 -26,-96 -21,-22 -54,-36 -101,-40l-170 -15 -22 256zm-103 67l34 -405 266 24c77,7 134,30 172,68 38,39 54,90 49,154 -6,68 -32,117 -78,147 -47,31 -114,42 -201,34l-242 -22zm1895 -12544l-257 -47 -43 250 257 46 14 -85 93 37 -8 48c-6,36 -18,59 -34,70 -17,11 -45,13 -85,6l-244 -44c-40,-8 -65,-19 -77,-35 -12,-16 -15,-42 -8,-78l36 -211c6,-37 18,-60 34,-71 16,-11 44,-12 84,-5l244 44c40,7 66,19 78,34 12,16 14,42 8,79l-7 38 -98 -3 13 -73zm-2545 12445l301 -358 92 17 166 442 -107 -19 -34 -97 -258 -47 -65 79 -95 -17zm213 -127l179 32 -62 -183 -117 151zm2425 -11966l330 -330 90 25 129 455 -105 -29 -26 -99 -253 -70 -71 73 -94 -25zm223 -108l176 48 -47 -188 -129 140zm-3280 12009l121 33c66,18 114,21 146,8 31,-12 53,-41 65,-88 11,-40 8,-73 -9,-99 -17,-26 -48,-45 -93,-57l-165 -46 -65 249zm-113 47l103 -392 258 71c74,20 126,53 157,97 31,45 38,98 22,161 -17,66 -51,109 -102,131 -51,21 -118,20 -203,-3l-235 -65zm4178 -11980l-245 -91 -85 238 245 91 29 -81 85 53 -16 45c-12,35 -27,56 -45,64 -19,8 -46,4 -85,-10l-233 -87c-37,-14 -61,-30 -70,-47 -9,-18 -7,-44 6,-79l71 -201c13,-35 28,-56 45,-64 18,-8 46,-4 84,10l233 87c39,14 62,30 71,47 9,18 7,44 -5,79l-13 37 -97 -20 25 -71zm-4427 11882l135 -381 91 33 -136 382 -90 -34zm4471 -11512l167 -368 88 41 -168 368 -87 -41zm273 41l285 149 113 -226 -286 -149 -112 226zm17 -252c16,-33 34,-52 52,-58 19,-5 46,1 82,20l274 143c37,19 58,38 64,56 7,19 2,44 -15,77l-95 191c-16,33 -34,52 -52,58 -19,5 -46,-1 -82,-20l-274 -143c-36,-19 -57,-37 -64,-56 -6,-18 -1,-44 15,-77l95 -191zm235 -45l155 -101 91 48 -193 81 -53 -28zm147 608l198 -351 58 34 160 405 132 -233 75 45 -198 351 -58 -34 -157 -409 -134 237 -76 -45zm-6189 10664l402 -231 81 47 8 474 -93 -55 0 -103 -227 -135 -87 52 -84 -49zm242 -45l158 93 2 -194 -160 101zm7192 -10112l-199 -172 -160 194 200 172 55 -66 62 79 -31 37c-23,28 -44,43 -64,44 -19,1 -44,-12 -75,-39l-190 -163c-31,-26 -48,-49 -50,-69 -3,-20 8,-44 31,-72l134 -164c24,-29 45,-43 64,-44 20,-1 45,11 76,38l190 163c31,27 48,50 50,70 3,20 -8,44 -31,72l-25 30 -84 -53 47 -57zm8 355l226 232 175 -180 -226 -231 -175 179zm92 -234c26,-26 48,-39 67,-38 20,0 43,15 72,45l217 222c29,30 44,54 44,74 1,19 -12,42 -37,68l-148 152c-26,26 -48,39 -68,38 -19,-1 -43,-16 -71,-45l-217 -222c-29,-30 -44,-54 -44,-74 -1,-19 11,-42 37,-69l148 -151zm150 606l304 -261 42 52 15 437 202 -173 56 68 -304 261 -43 -52 -11 -439 -205 176 -56 -69zm-7622 9024l-255 -170 -167 264 255 169 56 -89 82 83 -31 49c-24,38 -48,59 -70,63 -23,5 -54,-6 -93,-32l-243 -161c-39,-26 -62,-51 -67,-74 -5,-23 5,-53 29,-91l139 -219c24,-38 47,-59 70,-64 22,-5 53,6 93,32l242 162c40,26 62,50 67,73 5,23 -4,54 -28,92l-25 39 -104 -47 50 -79zm490 715l155 -374 90 39 -126 304 287 124 -29 70 -377 -163zm4162 38l-252 69 64 245 252 -69 -22 -84 99 -6 13 46c9,36 8,62 -2,79 -11,17 -35,31 -75,41l-239 66c-39,11 -67,11 -84,2 -17,-9 -31,-32 -40,-67l-54 -207c-10,-36 -9,-62 1,-79 11,-17 35,-31 74,-41l240 -66c39,-11 67,-12 85,-2 17,9 30,31 39,67l10 38 -90 40 -19 -72zm3219 -1518l-190 -430 54 -78 462 32 -62 91 -101 -9 -150 220 43 93 -56 81zm-23 -251l105 -152 -189 -20 84 172z"/>
  <path class="fil7 str1" d="M4418 6802l-37 192 57 13 36 -183c6,-29 14,-47 25,-55 11,-8 29,-9 53,-4l37 9c24,5 40,14 47,26 7,13 7,33 2,62l-36 181c-6,29 -14,47 -25,55 -11,9 -28,10 -53,4l-7 -1 0 -63 32 7 41 -208 -61 -14 -36 183c-6,29 -14,47 -25,55 -11,8 -29,9 -53,4l-30 -7c-24,-6 -40,-15 -47,-27 -7,-12 -7,-32 -2,-61l33 -166c6,-28 14,-46 24,-55 11,-8 27,-10 49,-5l6 1 1 64 -31 -7zm39 -172l175 58 46 -163 -175 -58 17 -58 163 54c20,7 32,15 37,26 5,11 3,29 -3,53l-44 155c-7,25 -15,40 -25,46 -9,6 -24,6 -43,-1l-164 -54 16 -58zm288 -176l-208 -91 76 -206c7,-19 15,-31 25,-37 9,-5 21,-5 35,1l46 21c15,6 23,15 27,26 3,11 1,26 -6,45l-56 150 81 36 -20 55zm-105 -258l-47 127 55 25 47 -127c4,-10 5,-17 4,-22 -1,-5 -5,-8 -11,-11l-22 -9c-6,-3 -11,-3 -15,-1 -3,3 -7,9 -11,18zm208 -10l-199 -111 110 -236 35 20 -85 182 44 24 49 -106 35 19 -50 106 49 27 86 -184 38 21 -112 238zm63 -535l-66 116 52 36 67 -116c5,-9 7,-16 7,-21 -1,-5 -4,-9 -9,-13l-22 -15c-6,-4 -11,-5 -15,-3 -4,2 -9,7 -14,16zm62 274l-190 -130 108 -188c10,-18 20,-28 30,-32 10,-4 22,-1 35,8l44 30c13,9 20,19 22,31 1,12 -3,26 -13,43l-17 29 129 -50 -42 73 -122 38 -27 48 72 49 -29 51zm163 -290l-179 -148 33 -48 179 148 -33 48zm55 -152l114 -155 -108 -96 -115 155 109 96zm-134 -42c-16,-14 -25,-27 -25,-39 -1,-12 6,-27 20,-47l110 -148c15,-20 27,-31 38,-32 11,-2 24,4 40,18l92 82c16,14 24,27 25,39 1,12 -6,28 -21,47l-110 148c-14,20 -27,31 -38,32 -10,2 -24,-4 -40,-18l-91 -82zm321 -437l-87 99 44 47 87 -99c7,-7 11,-13 11,-18 1,-5 -2,-10 -6,-15l-19 -20c-5,-5 -9,-7 -14,-6 -4,1 -10,5 -16,12zm8 283l-161 -171 141 -160c13,-14 25,-22 36,-24 10,-1 21,4 32,16l38 40c11,12 16,23 15,35 -1,12 -8,25 -21,39l-21 25 135 -20 -54 62 -127 10 -36 40 61 65 -38 43zm388 -468l55 -48c31,-26 49,-49 54,-69 5,-21 0,-42 -17,-65 -14,-20 -29,-30 -46,-31 -18,-2 -37,7 -57,25l-77 65 88 123zm-18 73l-138 -193 119 -103c35,-29 67,-43 97,-42 30,0 57,16 78,47 24,33 31,65 23,98 -8,33 -31,66 -71,100l-108 93zm232 -201l-121 -206 202 -144 22 36 -156 112 26 44 91 -65 21 36 -91 65 30 51 159 -113 22 38 -205 146zm441 -289l-115 -272 58 -29 94 220 186 -96 22 51 -245 126zm290 -191l169 -72 -49 -143 -170 72 50 143zm-97 -110c-7,-21 -8,-37 -3,-47 4,-11 17,-21 39,-30l163 -69c21,-9 37,-11 47,-7 10,5 19,17 26,38l42 121c7,21 9,37 4,48 -5,11 -18,21 -40,30l-162 68c-22,9 -37,12 -48,7 -10,-4 -18,-17 -26,-38l-42 -121zm490 -191l-121 36 16 66 121 -36c9,-3 15,-6 18,-10 2,-4 3,-10 1,-17l-6 -27c-2,-7 -5,-11 -9,-13 -4,-2 -11,-2 -20,1zm-126 248l-57 -238 196 -58c17,-5 31,-5 41,0 10,5 17,15 21,32l13 55c4,17 3,29 -3,39 -7,9 -19,17 -37,22l-30 9 125 59 -75 23 -113 -63 -50 15 22 89 -53 16zm334 -84l-38 -242 237 -47 7 43 -183 36 8 53 107 -21 6 42 -106 21 9 59 186 -36 7 45 -240 47zm393 -264l9 202 -55 3 -9 -201 -108 6 -2 -44 272 -16 2 44 -109 6zm197 139l181 -1 0 -153 -181 1 0 153zm-54 -141c0,-22 4,-37 12,-46 8,-8 23,-12 46,-12l174 0c23,-1 39,3 46,12 8,8 12,23 12,46l0 129c0,23 -4,38 -12,46 -9,8 -24,13 -47,13l-174 0c-23,0 -38,-4 -46,-12 -8,-8 -12,-23 -12,-46l1 -130z"/>
  <path class="fil6" d="M3692 7172l-369 -14 4 -81 368 14 -3 81zm11 -183l-300 -36 6 -48 232 -216 -199 -24 8 -62 300 37 -6 47 -235 215 202 24 -8 63zm-137 -689l-44 191 62 13 42 -181c7,-29 16,-47 28,-55 12,-8 31,-9 58,-3l41 8c27,6 44,15 52,27 7,12 8,32 1,60l-41 181c-7,28 -16,47 -29,55 -12,8 -31,10 -58,4l-9 -2 2 -63 35 7 48 -204 -68 -14 -42 180c-6,29 -16,47 -28,55 -12,8 -32,9 -59,4l-32 -7c-27,-6 -44,-14 -52,-27 -7,-12 -8,-32 -1,-61l38 -165c7,-28 16,-46 28,-54 11,-9 29,-11 53,-6l7 2 0 61 -32 -6zm82 -292l237 70 -22 67 -236 -70 -44 131 -52 -15 109 -330 52 16 -44 131zm294 -93l-285 -95 24 -65 286 94 -25 66zm-114 -372l229 89 -28 64 -229 -89 -55 128 -51 -20 139 -319 50 19 -55 128zm60 -249l219 106 96 -176 -218 -106 34 -63 205 100c24,12 38,25 42,39 4,13 -1,33 -15,59l-92 167c-14,26 -28,41 -42,46 -14,5 -33,1 -57,-11l-205 -100 33 -61zm307 -418l210 126 -40 58 -209 -125 -78 116 -46 -27 195 -292 46 28 -78 116zm297 -87l148 -183 -150 -108 -148 183 150 108zm-182 -44c-22,-15 -34,-30 -35,-44 -2,-14 7,-32 26,-55l142 -176c18,-23 35,-36 49,-38 15,-2 33,4 55,20l127 91c22,16 33,31 35,45 1,14 -7,32 -26,55l-142 176c-19,23 -35,36 -50,38 -14,2 -32,-5 -54,-20l-127 -92zm3972 -1820l243 9 8 -178 -244 -9 -7 178zm-67 -166c1,-26 7,-44 18,-53 11,-9 32,-13 63,-12l234 10c31,1 52,6 62,16 10,10 15,28 14,54l-7 150c-1,26 -7,44 -18,53 -12,9 -32,13 -63,11l-234 -9c-31,-1 -51,-6 -62,-16 -10,-10 -15,-28 -13,-54l6 -150zm-3253 1176l206 210 -63 55 -206 -210 -124 108 -45 -46 313 -272 44 46 -125 109zm336 89l-185 -226 256 -187 33 40 -198 144 41 49 115 -84 32 39 -116 84 46 56 201 -147 34 43 -259 189zm367 -543l-163 107 107 146 164 -106 -37 -50 70 -28 20 27c16,22 22,39 19,53 -4,14 -18,29 -43,45l-156 102c-25,16 -45,23 -59,21 -15,-2 -30,-13 -46,-35l-91 -123c-15,-22 -22,-39 -18,-53 3,-14 17,-29 42,-45l156 -101c25,-17 45,-24 60,-22 15,2 30,13 45,35l17 22 -55 49 -32 -44zm218 142l-145 -251 44 -23 322 51 -96 -167 58 -30 145 251 -45 23 -322 -54 98 169 -59 31zm393 -261l221 -96 -79 -161 -221 95 79 162zm-139 -119c-12,-24 -15,-42 -9,-55 5,-13 22,-25 50,-37l212 -92c29,-13 50,-17 64,-12 14,4 26,18 38,42l66 137c12,23 15,42 9,54 -6,13 -22,26 -50,38l-213 92c-28,12 -49,16 -63,12 -14,-5 -26,-19 -38,-43l-66 -136zm467 39l-102 -269 70 -23 83 218 223 -75 19 50 -293 99zm366 -173l236 -58 -48 -172 -235 58 47 172zm-115 -140c-7,-25 -6,-44 2,-56 7,-11 26,-21 56,-28l226 -56c31,-7 52,-8 65,-1 13,7 22,22 29,48l41 145c7,25 6,44 -1,55 -8,12 -27,22 -57,29l-226 56c-30,7 -51,8 -64,1 -13,-7 -23,-23 -30,-48l-41 -145zm112 -136l38 -127 75 -18 -69 134 -44 11zm596 -37l-226 40 35 175 226 -40 -12 -60 -118 21 -10 -50 189 -33 20 97c5,25 3,44 -6,55 -9,11 -28,19 -58,24l-215 39c-31,5 -52,4 -64,-3 -13,-8 -22,-24 -27,-50l-29 -148c-5,-25 -4,-44 5,-55 9,-11 28,-19 59,-25l215 -38c30,-5 51,-4 63,3 13,7 22,23 26,46l2 8 -69 24 -6 -30zm154 218l-40 -283 73 -9 40 283 -73 9zm352 -260l-198 12 12 178 199 -12 -5 -61 76 10 2 33c2,26 -3,44 -13,54 -10,11 -31,17 -62,18l-188 12c-30,2 -51,-2 -63,-11 -12,-8 -18,-26 -20,-52l-10 -150c-2,-26 2,-44 12,-54 10,-10 31,-16 61,-18l189 -11c31,-2 52,1 64,10 11,9 18,26 20,52l1 28 -73 14 -4 -52z"/>
 </g>
 <g id="mapa">
  <metadata id="CorelCorpID_7Corel-Layer"/>
  <g id="_2568263526368">
   <polygon class="fil2" points="7023,5078 6365,5518 6547,5728 6783,5942 7023,6193 7254,6442 7957,5743 7937,5731 7918,5688 7699,5555 7498,5472 7446,5345 7369,5254 7188,5241 7085,5129 "/>
   <polygon id="_1" class="fil4 str1" points="7023,5078 6365,5518 6547,5728 6783,5942 7023,6193 7254,6442 7957,5743 7937,5731 7918,5688 7699,5555 7498,5472 7446,5345 7369,5254 7188,5241 7085,5129 "/>
  </g>
  <g id="_2568263526400">
   <polygon class="fil2" points="7079,7823 7148,7969 7309,8208 7515,8482 8311,8537 8545,8156 8252,7964 7716,7702 7235,7278 7073,7623 7087,7803 "/>
   <polygon id="_1_1" class="fil4 str1" points="7079,7823 7148,7969 7309,8208 7515,8482 8311,8537 8545,8156 8252,7964 7716,7702 7235,7278 7073,7623 7087,7803 "/>
  </g>
  <g id="_2568263524352">
   <polygon class="fil2" points="6815,7534 6683,7493 6564,7269 6540,7225 6450,7021 6340,6931 6223,7052 6212,6964 6223,6871 6271,6796 6389,6742 7235,7278 7073,7623 7069,7583 6922,7569 "/>
   <polygon id="_1_2" class="fil4 str1" points="6815,7534 6683,7493 6564,7269 6540,7225 6450,7021 6340,6931 6223,7052 6212,6964 6223,6871 6271,6796 6389,6742 7235,7278 7073,7623 7069,7583 6922,7569 "/>
  </g>
  <g id="_2568263521824">
   <polygon class="fil2" points="8399,7012 7431,6880 7235,7278 7716,7702 8252,7964 "/>
   <polygon id="_1_3" class="fil4 str1" points="8399,7012 7431,6880 7235,7278 7716,7702 8252,7964 "/>
  </g>
  <g id="_2568263508224">
   <polygon class="fil2" points="6389,6742 6366,6608 6355,6510 6366,6423 6399,6340 6184,6201 6066,6335 5901,6423 5758,6482 5537,6499 5448,6476 5356,6447 5361,6138 6365,5518 6547,5728 6783,5942 7023,6193 7254,6442 7431,6880 7235,7278 "/>
   <polygon id="_1_4" class="fil4 str1" points="6389,6742 6366,6608 6355,6510 6366,6423 6399,6340 6184,6201 6066,6335 5901,6423 5758,6482 5537,6499 5448,6476 5356,6447 5361,6138 6365,5518 6547,5728 6783,5942 7023,6193 7254,6442 7431,6880 7235,7278 "/>
  </g>
  <g id="_2568263505056">
   <polygon class="fil2" points="10479,10521 10413,10548 10293,10580 10215,10629 10161,10629 10103,10553 9999,10420 9590,10456 9029,9925 8953,9697 8731,9660 9048,8266 9769,6003 9793,5991 9921,5878 9985,5723 10011,5498 10036,5287 10054,5173 10141,5201 10228,5230 10307,5349 10403,5545 10540,5643 10674,5657 10739,5818 10720,6043 10733,6107 10772,6233 10778,6325 10786,6472 10761,6599 10716,6753 10627,6859 10510,6980 10382,7015 10338,7093 10345,7254 10364,7381 10436,7536 10526,7669 10655,7780 10684,7837 10733,7927 10720,7984 10733,8061 10713,8182 10708,8371 10702,8483 10677,8561 10673,8580 10639,8743 10612,8878 10614,9046 10614,9250 10596,9412 10531,9553 10436,9700 10333,9862 10217,10158 10223,10173 10228,10189 10234,10205 10239,10221 10245,10238 10251,10253 10256,10268 10262,10285 10267,10300 10274,10316 10281,10329 10288,10345 10295,10360 10304,10375 10311,10391 10318,10406 10326,10421 10335,10435 10345,10449 10354,10461 10366,10472 10378,10481 10394,10490 10412,10499 10432,10505 10450,10512 "/>
   <polygon id="_1_5" class="fil4 str1" points="10479,10521 10413,10548 10293,10580 10215,10629 10161,10629 10103,10553 9999,10420 9590,10456 9029,9925 8953,9697 8731,9660 9048,8266 9769,6003 9793,5991 9921,5878 9985,5723 10011,5498 10036,5287 10054,5173 10141,5201 10228,5230 10307,5349 10403,5545 10540,5643 10674,5657 10739,5818 10720,6043 10733,6107 10772,6233 10778,6325 10786,6472 10761,6599 10716,6753 10627,6859 10510,6980 10382,7015 10338,7093 10345,7254 10364,7381 10436,7536 10526,7669 10655,7780 10684,7837 10733,7927 10720,7984 10733,8061 10713,8182 10708,8371 10702,8483 10677,8561 10673,8580 10639,8743 10612,8878 10614,9046 10614,9250 10596,9412 10531,9553 10436,9700 10333,9862 10217,10158 10223,10173 10228,10189 10234,10205 10239,10221 10245,10238 10251,10253 10256,10268 10262,10285 10267,10300 10274,10316 10281,10329 10288,10345 10295,10360 10304,10375 10311,10391 10318,10406 10326,10421 10335,10435 10345,10449 10354,10461 10366,10472 10378,10481 10394,10490 10412,10499 10432,10505 10450,10512 "/>
  </g>
  <g id="_2568263505600">
   <polygon class="fil2" points="8731,9660 9048,8266 8545,8156 8311,8537 7515,8482 7554,8749 7479,9031 7595,9206 7794,9304 7988,9550 8036,9576 8253,9697 8320,9593 "/>
   <polygon id="_1_6" class="fil4 str1" points="8731,9660 9048,8266 8545,8156 8311,8537 7515,8482 7554,8749 7479,9031 7595,9206 7794,9304 7988,9550 8036,9576 8253,9697 8320,9593 "/>
  </g>
  <g id="_2568263502528">
   <polygon class="fil2" points="8399,7012 7431,6880 7254,6442 7957,5743 8015,5780 8059,5856 8103,5923 8131,5968 8247,6122 8326,6355 8417,6635 8476,6686 "/>
   <polygon id="_1_7" class="fil4 str1" points="8399,7012 7431,6880 7254,6442 7957,5743 8015,5780 8059,5856 8103,5923 8131,5968 8247,6122 8326,6355 8417,6635 8476,6686 "/>
  </g>
  <g id="_2568263500736">
   <polygon class="fil2" points="8545,8156 8252,7964 8399,7012 8476,6686 8546,6747 8642,6720 8674,6663 8686,6514 8706,6360 8769,6289 8848,6331 8963,6415 9060,6507 9215,6513 9356,6413 9472,6266 9504,6302 9600,6132 9677,6069 9769,6003 9048,8266 "/>
   <polygon id="_1_8" class="fil4 str1" points="8545,8156 8252,7964 8399,7012 8476,6686 8546,6747 8642,6720 8674,6663 8686,6514 8706,6360 8769,6289 8848,6331 8963,6415 9060,6507 9215,6513 9356,6413 9472,6266 9504,6302 9600,6132 9677,6069 9769,6003 9048,8266 "/>
  </g>
 </g>
</svg>
