<?xml version="1.0" encoding="UTF-8" standalone="no"?>
<!-- Creator: CorelDRAW X6 -->

<svg
   xml:space="preserve"
   width="144.78mm"
   height="144.78mm"
   version="1.1"
   style="shape-rendering:geometricPrecision; text-rendering:geometricPrecision; image-rendering:optimizeQuality; fill-rule:evenodd; clip-rule:evenodd"
   viewBox="0 0 14478 14478"
   id="svg1806"
   sodipodi:docname="LogoTecLoretoOriginal (2).svg"
   inkscape:version="1.2.1 (9c6d41e410, 2022-07-14)"
   xmlns:inkscape="http://www.inkscape.org/namespaces/inkscape"
   xmlns:sodipodi="http://sodipodi.sourceforge.net/DTD/sodipodi-0.dtd"
   xmlns="http://www.w3.org/2000/svg"
   xmlns:svg="http://www.w3.org/2000/svg"><sodipodi:namedview
   id="namedview1808"
   pagecolor="#505050"
   bordercolor="#ffffff"
   borderopacity="1"
   inkscape:showpageshadow="0"
   inkscape:pageopacity="0"
   inkscape:pagecheckerboard="1"
   inkscape:deskcolor="#505050"
   inkscape:document-units="mm"
   showgrid="false"
   inkscape:zoom="0.84899335"
   inkscape:cx="311.54543"
   inkscape:cy="274.44267"
   inkscape:window-width="1600"
   inkscape:window-height="837"
   inkscape:window-x="-8"
   inkscape:window-y="-8"
   inkscape:window-maximized="1"
   inkscape:current-layer="layer1" />
 <defs
   id="defs908">
  <style
   type="text/css"
   id="style906">
   <![CDATA[
    .str1 {stroke:#2B2A29;stroke-width:7.62}
    .str0 {stroke:#015BA6;stroke-width:7.62}
    .str2 {stroke:black;stroke-width:0.77}
    .str3 {stroke:#0066FF;stroke-width:0.77}
    .fil3 {fill:none}
    .fil7 {fill:none;fill-rule:nonzero}
    .fil2 {fill:#EBECEC}
    .fil1 {fill:#FEFEFE}
    .fil4 {fill:#0066FF}
    .fil0 {fill:#1A4F9C}
    .fil5 {fill:#FEFEFE;fill-rule:nonzero}
    .fil6 {fill:#015BA6;fill-rule:nonzero}
   ]]>
  </style>
 </defs>
 <g
   inkscape:groupmode="layer"
   id="layer4"
   inkscape:label="Circulos"
   style="display:inline"><circle
     class="fil0 str0"
     cx="7210"
     cy="7253"
     r="6985"
     id="circle911"
     style="clip-rule:evenodd;display:inline;fill-rule:evenodd;image-rendering:optimizeQuality;shape-rendering:geometricPrecision;text-rendering:geometricPrecision" /><ellipse
     class="fil1 str0"
     cx="7184"
     cy="7259"
     rx="5503"
     ry="5495"
     id="ellipse913"
     style="clip-rule:evenodd;display:inline;fill-rule:evenodd;image-rendering:optimizeQuality;shape-rendering:geometricPrecision;text-rendering:geometricPrecision" /><circle
     class="fil2 str1"
     cx="7210"
     cy="7253"
     r="5296"
     id="circle915"
     style="clip-rule:evenodd;display:inline;fill-rule:evenodd;image-rendering:optimizeQuality;shape-rendering:geometricPrecision;text-rendering:geometricPrecision" /></g><g
   inkscape:groupmode="layer"
   id="layer5"
   inkscape:label="Engrane 1"
   style="display:inline"><path
     id="polygon1125"
     style="clip-rule:evenodd;display:inline;fill-rule:evenodd;image-rendering:optimizeQuality;shape-rendering:geometricPrecision;text-rendering:geometricPrecision"
     class="fil4"
     inkscape:label="polygon1125L"
     d="m 9673.0011,2819.9828 -410.0008,737.0093 -515.9892,-244.0161 -543.0159,-170.9973 -809.9764,3345.0154 233.9909,99.9939 1396.9689,-2190.9774 737.0093,636.9637 -1963.9628,1700.0513 153.9958,275.9521 2476.9551,-780.9859 113.016,475.9916 42.995,486.0168 -2596.9993,40.9795 -58.9628,310.0069 1077.9703,447.0011 1321.0048,548.0285 -218.023,435.9941 -280.9648,401.0091 -2015.019,-1639.0214 -244.0162,199.006 1198.0147,2304.976 -447.9829,193.011 -472.0126,127.021 -490.9777,-2551.0074 -878.0343,2531.9904 -467.9817,-139.992 -443.0221,-205.982 1264.0055,-2270.0423 -239.0035,-206.9641 -925.9899,710.9644 -1134.9695,871.0062 -269.0275,-407.9854 -205.9822,-443.022 2426.0017,-926.9719 -50.0228,-264.9967 -3442.012,54.0019 48.0074,567.9756 124.0234,556.0384 -810.0281,236.9881 512.992,1171.9698 724.0384,-431.9633 324.0113,466.9999 385.9712,420.9564 -581.9799,610.04 1029.9629,757.99 410.0008,-737.009 515.0073,242.982 543.016,172.031 -198.0241,820.002 1271.0335,140.973 -14.0043,-842.998 567.9756,-46.973 557.0203,-124.024 236.9881,810.028 1172.0215,-513.043 -432.9969,-723.987 467.9818,-324.993 420.0256,-384.99 610.971,581.98 757.008,-1029.9627 -736.027,-410.0008 243.034,-516.0408 170.997,-542.9643 820.002,197.9724 140.973,-1269.9999 -841.964,13.0224 -48.008,-568.0273 -124.023,-556.9686 810.028,-238.0216 -512.992,-1170.988 -724.038,432.9969 -323.96,-467.9818 -386.023,-420.026 583.014,-610.9705 z" /><polyline
     class="fil3 str2"
     points="8402,2323 7835,2219 7259,2180 6683,2208 6114,2300 5559,2457 5025,2676 4520,2955 4050,3288 3620,3674 3237,4105 2907,4577 2631,5084 2416,5619 2262,6176 2173,6745 2149,7322 "
     id="polyline975"
     style="clip-rule:evenodd;display:inline;fill-rule:evenodd;image-rendering:optimizeQuality;shape-rendering:geometricPrecision;text-rendering:geometricPrecision" /><path
     id="polygon993"
     class="fil4"
     d="m 7258.9883,2180.0219 -575.9855,27.957 -569.0092,92.0357 -555.0049,156.993 -533.9725,219.0047 -505.0338,279.0011 -469.9971,333.0029 -429.9996,385.9712 -382.9741,431.0332 -330.0056,471.9608 -276.0039,506.9975 -215.0256,535.0061 -153.9958,557.0202 -88.9868,569.0092 -23.9778,576.9674 841.9641,-12.9708 25.0114,-517.0227 85.9895,-509.9947 148.0013,-495.9904 207.9977,-472.9944 264.0149,-444.9857 316.0013,-408.0371 364.9907,-367.9879 406.0217,-319.9805 441.9885,-267.0121 472.9944,-210.9948 494.0267,-153.014 508.9611,-90.0203 516.0409,-27.957 515.9891,37.0004 223.9657,34.9849 221.0201,46.9739 198.0241,-818.9681 -566.9938,-104.0246 z"
     style="clip-rule:evenodd;display:inline;fill-rule:evenodd;image-rendering:optimizeQuality;shape-rendering:geometricPrecision;text-rendering:geometricPrecision" /></g><g
   inkscape:groupmode="layer"
   id="layer3"
   inkscape:label="Letras 2"
   style="display:inline"><path
     class="fil6"
     d="m 3538,6539 -38,193 57,13 36,-184 c 6,-28 14,-47 25,-55 11,-8 29,-9 53,-3 l 37,8 c 24,6 40,14 47,27 7,12 7,32 2,61 l -36,182 c -6,28 -14,47 -25,55 -11,8 -28,9 -53,3 l -7,-1 1,-63 31,7 41,-208 -61,-14 -36,184 c -6,28 -14,46 -25,54 -11,8 -28,9 -53,4 l -29,-7 c -25,-6 -41,-15 -48,-27 -6,-12 -7,-32 -2,-60 l 33,-167 c 6,-28 14,-46 24,-54 11,-9 27,-10 49,-5 l 6,1 1,63 z"
     id="path1630"
     style="clip-rule:evenodd;display:inline;fill-rule:evenodd;image-rendering:optimizeQuality;shape-rendering:geometricPrecision;text-rendering:geometricPrecision" /><path
     id="path1632"
     class="fil6"
     d="m 3576,6368 175,57 46,-164 -174,-58 16,-57 164,54 c 19,6 31,15 36,26 5,11 4,29 -3,53 l -44,156 c -7,24 -15,39 -25,45 -9,6 -23,5 -43,-1 l -164,-54 z"
     style="clip-rule:evenodd;display:inline;fill-rule:evenodd;image-rendering:optimizeQuality;shape-rendering:geometricPrecision;text-rendering:geometricPrecision" /><path
     id="path1634"
     class="fil6"
     d="m 3864,6191 -208,-92 77,-205 c 7,-19 15,-32 24,-37 10,-6 21,-5 36,1 l 46,20 c 14,7 23,15 26,26 3,12 1,27 -6,45 l -56,152 81,35 z m -105,-258 -47,128 55,24 48,-128 c 3,-9 5,-16 3,-21 -1,-5 -5,-9 -11,-11 l -21,-10 c -7,-3 -11,-3 -15,0 -4,2 -8,8 -12,18 z"
     style="clip-rule:evenodd;display:inline;fill-rule:evenodd;image-rendering:optimizeQuality;shape-rendering:geometricPrecision;text-rendering:geometricPrecision" /><polygon
     id="polygon1636"
     class="fil6"
     points="3878,5577 3913,5596 3828,5778 3872,5802 3921,5697 3955,5716 3906,5821 3955,5848 4041,5664 4079,5685 3967,5923 3768,5812 "
     style="clip-rule:evenodd;display:inline;fill-rule:evenodd;image-rendering:optimizeQuality;shape-rendering:geometricPrecision;text-rendering:geometricPrecision" /><path
     id="path1638"
     class="fil6"
     d="m 4030,5388 -66,116 52,36 67,-117 c 5,-8 7,-15 7,-20 -1,-5 -4,-9 -10,-13 l -21,-15 c -6,-4 -11,-5 -15,-3 -4,2 -9,7 -14,16 z m 62,273 -190,-129 108,-188 c 10,-17 20,-28 30,-32 10,-3 22,-1 35,8 l 44,30 c 13,9 20,19 21,31 2,12 -2,26 -12,43 l -17,29 129,-50 -42,73 -122,38 -27,48 72,49 z"
     style="clip-rule:evenodd;display:inline;fill-rule:evenodd;image-rendering:optimizeQuality;shape-rendering:geometricPrecision;text-rendering:geometricPrecision" /><polygon
     id="polygon1640"
     class="fil6"
     points="4109,5177 4287,5324 4255,5372 4076,5225 "
     style="clip-rule:evenodd;display:inline;fill-rule:evenodd;image-rendering:optimizeQuality;shape-rendering:geometricPrecision;text-rendering:geometricPrecision" /><path
     id="path1642"
     class="fil6"
     d="m 4310,5220 114,-155 -109,-96 -114,155 z m -135,-42 c -16,-14 -24,-27 -25,-39 0,-12 7,-27 21,-47 l 110,-148 c 15,-20 27,-31 38,-32 11,-2 24,4 40,18 l 92,82 c 16,14 24,27 25,39 1,12 -6,27 -21,47 l -110,149 c -14,19 -27,30 -38,31 -10,2 -24,-4 -40,-18 z"
     style="clip-rule:evenodd;display:inline;fill-rule:evenodd;image-rendering:optimizeQuality;shape-rendering:geometricPrecision;text-rendering:geometricPrecision" /><path
     id="path1644"
     class="fil6"
     d="m 4497,4741 -88,99 45,47 88,-99 c 6,-7 10,-14 10,-19 1,-5 -1,-9 -6,-14 l -18,-20 c -5,-5 -10,-7 -14,-6 -5,0 -10,4 -17,12 z m 8,283 -161,-171 142,-160 c 13,-14 24,-22 35,-24 11,-1 21,4 32,16 l 38,40 c 11,11 16,23 15,35 -1,11 -7,24 -20,39 l -22,24 135,-19 -54,62 -127,10 -36,41 61,64 z"
     style="clip-rule:evenodd;display:inline;fill-rule:evenodd;image-rendering:optimizeQuality;shape-rendering:geometricPrecision;text-rendering:geometricPrecision" /><path
     id="path1646"
     class="fil6"
     d="m 4893,4555 55,-47 c 30,-26 48,-49 53,-69 6,-20 0,-42 -16,-65 -14,-20 -30,-30 -47,-31 -17,-1 -36,7 -57,25 l -76,65 z m -18,74 -138,-193 119,-102 c 34,-30 67,-44 97,-43 30,1 56,17 78,47 23,33 31,66 23,98 -8,33 -32,67 -71,100 z"
     style="clip-rule:evenodd;display:inline;fill-rule:evenodd;image-rendering:optimizeQuality;shape-rendering:geometricPrecision;text-rendering:geometricPrecision" /><polygon
     id="polygon1648"
     class="fil6"
     points="5189,4078 5210,4114 5054,4226 5080,4270 5171,4205 5192,4241 5101,4306 5131,4356 5290,4243 5312,4282 5107,4428 4986,4222 "
     style="clip-rule:evenodd;display:inline;fill-rule:evenodd;image-rendering:optimizeQuality;shape-rendering:geometricPrecision;text-rendering:geometricPrecision" /><polygon
     id="polygon1650"
     class="fil6"
     points="5491,3838 5584,4058 5771,3962 5793,4013 5548,4139 5433,3867 "
     style="clip-rule:evenodd;display:inline;fill-rule:evenodd;image-rendering:optimizeQuality;shape-rendering:geometricPrecision;text-rendering:geometricPrecision" /><path
     id="path1652"
     class="fil6"
     d="m 5838,3948 169,-72 -50,-143 -169,71 z m -97,-110 c -7,-21 -8,-36 -4,-47 5,-11 18,-21 40,-30 l 162,-68 c 22,-10 38,-12 48,-8 10,5 18,17 25,38 l 42,121 c 8,21 9,37 4,48 -5,11 -18,21 -39,30 l -162,68 c -22,10 -38,12 -48,7 -10,-4 -18,-17 -26,-38 z"
     style="clip-rule:evenodd;display:inline;fill-rule:evenodd;image-rendering:optimizeQuality;shape-rendering:geometricPrecision;text-rendering:geometricPrecision" /><path
     id="path1654"
     class="fil6"
     d="m 6231,3648 -121,35 16,66 121,-36 c 9,-3 15,-6 18,-10 2,-4 3,-10 1,-16 l -6,-28 c -2,-6 -5,-11 -9,-13 -4,-2 -11,-1 -20,2 z m -126,247 -57,-237 196,-58 c 17,-6 31,-6 41,-1 10,5 17,16 21,32 l 13,55 c 4,16 3,29 -4,39 -6,9 -18,17 -36,22 l -30,9 125,59 -76,23 -112,-63 -50,15 22,89 z"
     style="clip-rule:evenodd;display:inline;fill-rule:evenodd;image-rendering:optimizeQuality;shape-rendering:geometricPrecision;text-rendering:geometricPrecision" /><polygon
     id="polygon1656"
     class="fil6"
     points="6638,3523 6645,3565 6462,3601 6470,3654 6577,3633 6583,3675 6477,3696 6486,3755 6672,3719 6679,3764 6439,3811 6401,3569 "
     style="clip-rule:evenodd;display:inline;fill-rule:evenodd;image-rendering:optimizeQuality;shape-rendering:geometricPrecision;text-rendering:geometricPrecision" /><polygon
     id="polygon1658"
     class="fil6"
     points="6939,3497 6941,3541 6832,3547 6841,3749 6786,3752 6777,3551 6669,3557 6667,3513 "
     style="clip-rule:evenodd;display:inline;fill-rule:evenodd;image-rendering:optimizeQuality;shape-rendering:geometricPrecision;text-rendering:geometricPrecision" /><path
     id="path1660"
     class="fil6"
     d="m 7029,3686 181,-1 v -153 l -181,1 z m -54,-140 c 0,-22 4,-38 12,-46 8,-8 23,-12 46,-12 l 174,-1 c 23,0 38,4 46,12 8,8 12,23 12,46 l -1,129 c 0,23 -4,38 -12,46 -8,8 -23,13 -46,13 h -174 c -23,0 -38,-4 -46,-12 -8,-8 -12,-23 -12,-46 z"
     style="clip-rule:evenodd;display:inline;fill-rule:evenodd;image-rendering:optimizeQuality;shape-rendering:geometricPrecision;text-rendering:geometricPrecision" /><path
     id="path1662"
     class="fil7 str1"
     d="m 3538,6539 -38,193 57,13 36,-184 c 6,-28 14,-47 25,-55 11,-8 29,-9 53,-3 l 37,8 c 24,6 40,14 47,27 7,12 7,32 2,61 l -36,182 c -6,28 -14,47 -25,55 -11,8 -28,9 -53,3 l -7,-1 1,-63 31,7 41,-208 -61,-14 -36,184 c -6,28 -14,46 -25,54 -11,8 -28,9 -53,4 l -29,-7 c -25,-6 -41,-15 -48,-27 -6,-12 -7,-32 -2,-60 l 33,-167 c 6,-28 14,-46 24,-54 11,-9 27,-10 49,-5 l 6,1 1,63 z"
     style="clip-rule:evenodd;display:inline;fill-rule:evenodd;image-rendering:optimizeQuality;shape-rendering:geometricPrecision;text-rendering:geometricPrecision" /><path
     id="path1664"
     class="fil7 str1"
     d="m 3576,6368 175,57 46,-164 -174,-58 16,-57 164,54 c 19,6 31,15 36,26 5,11 4,29 -3,53 l -44,156 c -7,24 -15,39 -25,45 -9,6 -23,5 -43,-1 l -164,-54 z"
     style="clip-rule:evenodd;display:inline;fill-rule:evenodd;image-rendering:optimizeQuality;shape-rendering:geometricPrecision;text-rendering:geometricPrecision" /><path
     id="path1666"
     class="fil7 str1"
     d="m 3864,6191 -208,-92 77,-205 c 7,-19 15,-32 24,-37 10,-6 21,-5 36,1 l 46,20 c 14,7 23,15 26,26 3,12 1,27 -6,45 l -56,152 81,35 z m -105,-258 -47,128 55,24 48,-128 c 3,-9 5,-16 3,-21 -1,-5 -5,-9 -11,-11 l -21,-10 c -7,-3 -11,-3 -15,0 -4,2 -8,8 -12,18 z"
     style="clip-rule:evenodd;display:inline;fill-rule:evenodd;image-rendering:optimizeQuality;shape-rendering:geometricPrecision;text-rendering:geometricPrecision" /><polygon
     id="polygon1668"
     class="fil7 str1"
     points="3878,5577 3913,5596 3828,5778 3872,5802 3921,5697 3955,5716 3906,5821 3955,5848 4041,5664 4079,5685 3967,5923 3768,5812 "
     style="clip-rule:evenodd;display:inline;fill-rule:evenodd;image-rendering:optimizeQuality;shape-rendering:geometricPrecision;text-rendering:geometricPrecision" /><path
     id="20"
     class="fil7 str1"
     d="m 4030,5388 -66,116 52,36 67,-117 c 5,-8 7,-15 7,-20 -1,-5 -4,-9 -10,-13 l -21,-15 c -6,-4 -11,-5 -15,-3 -4,2 -9,7 -14,16 z m 62,273 -190,-129 108,-188 c 10,-17 20,-28 30,-32 10,-3 22,-1 35,8 l 44,30 c 13,9 20,19 21,31 2,12 -2,26 -12,43 l -17,29 129,-50 -42,73 -122,38 -27,48 72,49 z"
     style="clip-rule:evenodd;display:inline;fill-rule:evenodd;image-rendering:optimizeQuality;shape-rendering:geometricPrecision;text-rendering:geometricPrecision" /><polygon
     id="21"
     class="fil7 str1"
     points="4109,5177 4287,5324 4255,5372 4076,5225 "
     style="clip-rule:evenodd;display:inline;fill-rule:evenodd;image-rendering:optimizeQuality;shape-rendering:geometricPrecision;text-rendering:geometricPrecision" /><path
     id="22"
     class="fil7 str1"
     d="m 4310,5220 114,-155 -109,-96 -114,155 z m -135,-42 c -16,-14 -24,-27 -25,-39 0,-12 7,-27 21,-47 l 110,-148 c 15,-20 27,-31 38,-32 11,-2 24,4 40,18 l 92,82 c 16,14 24,27 25,39 1,12 -6,27 -21,47 l -110,149 c -14,19 -27,30 -38,31 -10,2 -24,-4 -40,-18 z"
     style="clip-rule:evenodd;display:inline;fill-rule:evenodd;image-rendering:optimizeQuality;shape-rendering:geometricPrecision;text-rendering:geometricPrecision" /><path
     id="23"
     class="fil7 str1"
     d="m 4497,4741 -88,99 45,47 88,-99 c 6,-7 10,-14 10,-19 1,-5 -1,-9 -6,-14 l -18,-20 c -5,-5 -10,-7 -14,-6 -5,0 -10,4 -17,12 z m 8,283 -161,-171 142,-160 c 13,-14 24,-22 35,-24 11,-1 21,4 32,16 l 38,40 c 11,11 16,23 15,35 -1,11 -7,24 -20,39 l -22,24 135,-19 -54,62 -127,10 -36,41 61,64 z"
     style="clip-rule:evenodd;display:inline;fill-rule:evenodd;image-rendering:optimizeQuality;shape-rendering:geometricPrecision;text-rendering:geometricPrecision" /><path
     id="24"
     class="fil7 str1"
     d="m 4893,4555 55,-47 c 30,-26 48,-49 53,-69 6,-20 0,-42 -16,-65 -14,-20 -30,-30 -47,-31 -17,-1 -36,7 -57,25 l -76,65 z m -18,74 -138,-193 119,-102 c 34,-30 67,-44 97,-43 30,1 56,17 78,47 23,33 31,66 23,98 -8,33 -32,67 -71,100 z"
     style="clip-rule:evenodd;display:inline;fill-rule:evenodd;image-rendering:optimizeQuality;shape-rendering:geometricPrecision;text-rendering:geometricPrecision" /><polygon
     id="25"
     class="fil7 str1"
     points="5189,4078 5210,4114 5054,4226 5080,4270 5171,4205 5192,4241 5101,4306 5131,4356 5290,4243 5312,4282 5107,4428 4986,4222 "
     style="clip-rule:evenodd;display:inline;fill-rule:evenodd;image-rendering:optimizeQuality;shape-rendering:geometricPrecision;text-rendering:geometricPrecision" /><polygon
     id="26"
     class="fil7 str1"
     points="5491,3838 5584,4058 5771,3962 5793,4013 5548,4139 5433,3867 "
     style="clip-rule:evenodd;display:inline;fill-rule:evenodd;image-rendering:optimizeQuality;shape-rendering:geometricPrecision;text-rendering:geometricPrecision" /><path
     id="27"
     class="fil7 str1"
     d="m 5838,3948 169,-72 -50,-143 -169,71 z m -97,-110 c -7,-21 -8,-36 -4,-47 5,-11 18,-21 40,-30 l 162,-68 c 22,-10 38,-12 48,-8 10,5 18,17 25,38 l 42,121 c 8,21 9,37 4,48 -5,11 -18,21 -39,30 l -162,68 c -22,10 -38,12 -48,7 -10,-4 -18,-17 -26,-38 z"
     style="clip-rule:evenodd;display:inline;fill-rule:evenodd;image-rendering:optimizeQuality;shape-rendering:geometricPrecision;text-rendering:geometricPrecision" /><path
     id="28"
     class="fil7 str1"
     d="m 6231,3648 -121,35 16,66 121,-36 c 9,-3 15,-6 18,-10 2,-4 3,-10 1,-16 l -6,-28 c -2,-6 -5,-11 -9,-13 -4,-2 -11,-1 -20,2 z m -126,247 -57,-237 196,-58 c 17,-6 31,-6 41,-1 10,5 17,16 21,32 l 13,55 c 4,16 3,29 -4,39 -6,9 -18,17 -36,22 l -30,9 125,59 -76,23 -112,-63 -50,15 22,89 z"
     style="clip-rule:evenodd;display:inline;fill-rule:evenodd;image-rendering:optimizeQuality;shape-rendering:geometricPrecision;text-rendering:geometricPrecision" /><polygon
     id="29"
     class="fil7 str1"
     points="6638,3523 6645,3565 6462,3601 6470,3654 6577,3633 6583,3675 6477,3696 6486,3755 6672,3719 6679,3764 6439,3811 6401,3569 "
     style="clip-rule:evenodd;display:inline;fill-rule:evenodd;image-rendering:optimizeQuality;shape-rendering:geometricPrecision;text-rendering:geometricPrecision" /><polygon
     id="30"
     class="fil7 str1"
     points="6939,3497 6941,3541 6832,3547 6841,3749 6786,3752 6777,3551 6669,3557 6667,3513 "
     style="clip-rule:evenodd;display:inline;fill-rule:evenodd;image-rendering:optimizeQuality;shape-rendering:geometricPrecision;text-rendering:geometricPrecision" /><path
     id="31"
     class="fil7 str1"
     d="m 7029,3686 181,-1 v -153 l -181,1 z m -54,-140 c 0,-22 4,-38 12,-46 8,-8 23,-12 46,-12 l 174,-1 c 23,0 38,4 46,12 8,8 12,23 12,46 l -1,129 c 0,23 -4,38 -12,46 -8,8 -23,13 -46,13 h -174 c -23,0 -38,-4 -46,-12 -8,-8 -12,-23 -12,-46 z"
     style="clip-rule:evenodd;display:inline;fill-rule:evenodd;image-rendering:optimizeQuality;shape-rendering:geometricPrecision;text-rendering:geometricPrecision" /><polygon
     class="fil5"
     points="2446,6814 2814,6828 2811,6909 2442,6895 "
     id="polygon1609"
     style="clip-rule:evenodd;display:inline;fill-rule:evenodd;image-rendering:optimizeQuality;shape-rendering:geometricPrecision;text-rendering:geometricPrecision" /><polygon
     id="1"
     class="fil5"
     points="2561,6402 2570,6340 2869,6376 2863,6424 2628,6639 2830,6664 2822,6726 2522,6690 2529,6642 2760,6427 "
     style="clip-rule:evenodd;display:inline;fill-rule:evenodd;image-rendering:optimizeQuality;shape-rendering:geometricPrecision;text-rendering:geometricPrecision" /><path
     id="2"
     class="fil5"
     d="m 2685,6037 -44,191 62,13 42,-181 c 7,-28 16,-47 28,-54 12,-8 31,-10 59,-4 l 40,8 c 27,6 44,15 52,27 7,12 8,32 1,60 l -41,181 c -7,28 -16,47 -29,55 -12,8 -31,9 -58,4 l -9,-2 2,-63 35,8 48,-205 -68,-14 -41,180 c -7,28 -16,47 -29,55 -12,8 -31,9 -58,3 l -33,-6 c -27,-6 -44,-15 -51,-27 -8,-12 -8,-32 -2,-61 l 38,-164 c 7,-28 16,-47 28,-55 12,-9 29,-10 53,-6 l 7,2 v 62 z"
     style="clip-rule:evenodd;display:inline;fill-rule:evenodd;image-rendering:optimizeQuality;shape-rendering:geometricPrecision;text-rendering:geometricPrecision" /><polygon
     id="3"
     class="fil5"
     points="2759,5599 2811,5614 2768,5746 3004,5815 2982,5881 2746,5812 2702,5943 2651,5928 "
     style="clip-rule:evenodd;display:inline;fill-rule:evenodd;image-rendering:optimizeQuality;shape-rendering:geometricPrecision;text-rendering:geometricPrecision" /><polygon
     id="4"
     class="fil5"
     points="2801,5492 3085,5586 3061,5652 2776,5557 "
     style="clip-rule:evenodd;display:inline;fill-rule:evenodd;image-rendering:optimizeQuality;shape-rendering:geometricPrecision;text-rendering:geometricPrecision" /><polygon
     id="5"
     class="fil5"
     points="2952,5134 3002,5153 2947,5280 3176,5369 3148,5434 2919,5345 2864,5472 2814,5453 "
     style="clip-rule:evenodd;display:inline;fill-rule:evenodd;image-rendering:optimizeQuality;shape-rendering:geometricPrecision;text-rendering:geometricPrecision" /><path
     id="6"
     class="fil5"
     d="m 3007,5031 218,106 97,-176 -218,-106 34,-63 205,100 c 24,12 38,25 42,39 4,13 -1,33 -15,59 l -92,168 c -14,25 -28,41 -42,45 -14,5 -33,1 -58,-11 l -204,-100 z"
     style="clip-rule:evenodd;display:inline;fill-rule:evenodd;image-rendering:optimizeQuality;shape-rendering:geometricPrecision;text-rendering:geometricPrecision" /><polygon
     id="7"
     class="fil5"
     points="3346,4470 3392,4498 3314,4614 3523,4739 3484,4798 3275,4673 3197,4789 3151,4761 "
     style="clip-rule:evenodd;display:inline;fill-rule:evenodd;image-rendering:optimizeQuality;shape-rendering:geometricPrecision;text-rendering:geometricPrecision" /><path
     id="8"
     class="fil5"
     d="m 3611,4526 148,-183 -150,-108 -148,184 z m -181,-43 c -22,-16 -34,-31 -36,-45 -1,-14 7,-32 26,-55 l 142,-176 c 19,-23 36,-36 50,-38 14,-2 32,5 54,20 l 127,91 c 22,16 34,31 35,45 1,14 -7,32 -26,55 l -142,176 c -19,23 -35,36 -49,38 -15,2 -33,-5 -55,-20 z"
     style="clip-rule:evenodd;display:inline;fill-rule:evenodd;image-rendering:optimizeQuality;shape-rendering:geometricPrecision;text-rendering:geometricPrecision" /><path
     id="9"
     class="fil5"
     d="m 7401,2662 243,9 8,-178 -244,-9 z m -67,-166 c 1,-26 7,-44 18,-53 11,-9 32,-13 63,-12 l 234,10 c 31,1 52,6 62,16 10,10 15,28 14,54 l -7,150 c -1,26 -7,44 -18,53 -12,9 -32,13 -63,11 l -234,-9 c -31,-1 -51,-6 -62,-16 -10,-10 -15,-28 -13,-54 z"
     style="clip-rule:evenodd;display:inline;fill-rule:evenodd;image-rendering:optimizeQuality;shape-rendering:geometricPrecision;text-rendering:geometricPrecision" /><polygon
     id="10"
     class="fil5"
     points="4161,3518 4206,3563 4081,3672 4287,3882 4224,3937 4018,3727 3894,3834 3850,3789 "
     style="clip-rule:evenodd;display:inline;fill-rule:evenodd;image-rendering:optimizeQuality;shape-rendering:geometricPrecision;text-rendering:geometricPrecision" /><polygon
     id="11"
     class="fil5"
     points="4489,3348 4521,3387 4323,3532 4364,3581 4479,3497 4511,3536 4396,3620 4441,3675 4642,3529 4676,3571 4417,3761 4232,3535 "
     style="clip-rule:evenodd;display:inline;fill-rule:evenodd;image-rendering:optimizeQuality;shape-rendering:geometricPrecision;text-rendering:geometricPrecision" /><path
     id="12"
     class="fil5"
     d="m 4784,3218 -164,107 108,146 163,-106 -36,-50 70,-28 20,27 c 15,22 21,39 18,53 -3,14 -17,29 -43,45 l -155,102 c -25,16 -45,23 -59,21 -15,-2 -30,-13 -46,-35 l -91,-124 c -16,-21 -22,-39 -19,-52 4,-14 18,-29 43,-45 l 155,-101 c 26,-17 46,-24 60,-22 15,2 30,13 46,34 l 16,23 -55,48 z"
     style="clip-rule:evenodd;display:inline;fill-rule:evenodd;image-rendering:optimizeQuality;shape-rendering:geometricPrecision;text-rendering:geometricPrecision" /><polygon
     id="13"
     class="fil5"
     points="5127,2971 5185,2941 5330,3191 5285,3214 4963,3161 5061,3329 5002,3360 4858,3110 4902,3087 5223,3137 "
     style="clip-rule:evenodd;display:inline;fill-rule:evenodd;image-rendering:optimizeQuality;shape-rendering:geometricPrecision;text-rendering:geometricPrecision" /><path
     id="14"
     class="fil5"
     d="m 5395,3099 221,-95 -79,-163 -221,96 z m -140,-120 c -11,-23 -14,-41 -8,-54 5,-13 22,-25 50,-38 l 212,-91 c 29,-13 50,-17 63,-12 14,4 27,18 38,42 l 67,137 c 12,23 15,42 9,55 -6,12 -23,25 -50,37 l -213,92 c -28,12 -49,16 -63,11 -13,-4 -26,-18 -38,-41 z"
     style="clip-rule:evenodd;display:inline;fill-rule:evenodd;image-rendering:optimizeQuality;shape-rendering:geometricPrecision;text-rendering:geometricPrecision" /><polygon
     id="15"
     class="fil5"
     points="5691,2727 5774,2945 5996,2870 6015,2920 5723,3019 5621,2750 "
     style="clip-rule:evenodd;display:inline;fill-rule:evenodd;image-rendering:optimizeQuality;shape-rendering:geometricPrecision;text-rendering:geometricPrecision" /><path
     id="16"
     class="fil5"
     d="m 6089,2846 235,-58 -47,-172 -235,58 z m -115,-140 c -7,-25 -6,-44 1,-55 8,-12 27,-21 57,-29 l 226,-55 c 30,-8 52,-8 65,-2 12,7 22,23 29,48 l 40,145 c 8,25 7,44 -1,55 -8,12 -27,22 -57,29 l -225,56 c -30,7 -52,8 -65,1 -12,-7 -22,-23 -30,-48 z m 112,-136 38,-127 75,-19 -69,136 z"
     style="clip-rule:evenodd;display:inline;fill-rule:evenodd;image-rendering:optimizeQuality;shape-rendering:geometricPrecision;text-rendering:geometricPrecision" /><path
     id="17"
     class="fil5"
     d="m 6682,2533 -226,40 35,175 226,-40 -12,-60 -118,21 -10,-50 189,-33 19,96 c 5,26 4,45 -5,56 -9,11 -28,19 -58,24 l -215,39 c -30,5 -52,4 -64,-4 -13,-7 -21,-23 -27,-49 l -29,-148 c -5,-25 -3,-44 5,-55 9,-11 28,-19 58,-25 l 216,-38 c 30,-5 51,-4 63,3 13,7 21,23 26,47 l 2,7 -69,24 z"
     style="clip-rule:evenodd;display:inline;fill-rule:evenodd;image-rendering:optimizeQuality;shape-rendering:geometricPrecision;text-rendering:geometricPrecision" /><polygon
     id="18"
     class="fil5"
     points="6869,2459 6909,2742 6836,2751 6796,2469 "
     style="clip-rule:evenodd;display:inline;fill-rule:evenodd;image-rendering:optimizeQuality;shape-rendering:geometricPrecision;text-rendering:geometricPrecision" /><path
     id="19"
     class="fil5"
     d="m 7189,2491 -199,12 12,177 199,-12 -4,-60 75,10 2,33 c 2,26 -3,44 -13,54 -10,11 -30,17 -61,18 l -189,12 c -30,2 -51,-2 -63,-11 -11,-9 -18,-26 -20,-52 l -10,-150 c -2,-26 2,-44 13,-54 10,-10 30,-16 61,-17 l 188,-12 c 31,-2 53,2 64,11 11,8 18,26 20,51 l 2,28 -74,15 z"
     style="clip-rule:evenodd;display:inline;fill-rule:evenodd;image-rendering:optimizeQuality;shape-rendering:geometricPrecision;text-rendering:geometricPrecision" /></g><g
   inkscape:groupmode="layer"
   id="layer2"
   inkscape:label="Mapa"
   style="display:inline"><g
     id="g1686"
     style="clip-rule:evenodd;fill-rule:evenodd;image-rendering:optimizeQuality;shape-rendering:geometricPrecision;text-rendering:geometricPrecision">
    <polygon
   class="fil1"
   points="6818,5292 6617,5209 6565,5082 6488,4991 6307,4978 6204,4866 6142,4815 5484,5255 5666,5465 5902,5679 6142,5930 6373,6179 7076,5480 7056,5468 7037,5425 "
   id="polygon1682" />
    <polygon
   id="polygon1684"
   class="fil7 str1"
   points="6818,5292 6617,5209 6565,5082 6488,4991 6307,4978 6204,4866 6142,4815 5484,5255 5666,5465 5902,5679 6142,5930 6373,6179 7076,5480 7056,5468 7037,5425 " />
   </g><g
     id="g1692"
     style="clip-rule:evenodd;fill-rule:evenodd;image-rendering:optimizeQuality;shape-rendering:geometricPrecision;text-rendering:geometricPrecision">
    <polygon
   class="fil1"
   points="6428,7945 6634,8219 7430,8274 7664,7893 7371,7701 6835,7439 6354,7015 6192,7360 6206,7540 6198,7560 6267,7706 "
   id="polygon1688" />
    <polygon
   id="polygon1690"
   class="fil7 str1"
   points="6428,7945 6634,8219 7430,8274 7664,7893 7371,7701 6835,7439 6354,7015 6192,7360 6206,7540 6198,7560 6267,7706 " />
   </g><g
     id="g1698"
     style="clip-rule:evenodd;fill-rule:evenodd;image-rendering:optimizeQuality;shape-rendering:geometricPrecision;text-rendering:geometricPrecision">
    <polygon
   class="fil1"
   points="5390,6533 5508,6479 6354,7015 6192,7360 6188,7320 6041,7306 5934,7271 5802,7230 5683,7006 5659,6962 5569,6758 5459,6668 5342,6789 5331,6701 5342,6608 "
   id="polygon1694" />
    <polygon
   id="polygon1696"
   class="fil7 str1"
   points="5390,6533 5508,6479 6354,7015 6192,7360 6188,7320 6041,7306 5934,7271 5802,7230 5683,7006 5659,6962 5569,6758 5459,6668 5342,6789 5331,6701 5342,6608 " />
   </g><g
     id="g1704"
     style="clip-rule:evenodd;fill-rule:evenodd;image-rendering:optimizeQuality;shape-rendering:geometricPrecision;text-rendering:geometricPrecision">
    <polygon
   class="fil1"
   points="7371,7701 7518,6749 6550,6617 6354,7015 6835,7439 "
   id="polygon1700" />
    <polygon
   id="polygon1702"
   class="fil7 str1"
   points="7371,7701 7518,6749 6550,6617 6354,7015 6835,7439 " />
   </g><g
     id="g1710"
     style="clip-rule:evenodd;fill-rule:evenodd;image-rendering:optimizeQuality;shape-rendering:geometricPrecision;text-rendering:geometricPrecision">
    <polygon
   class="fil1"
   points="5518,6077 5303,5938 5185,6072 5020,6160 4877,6219 4656,6236 4567,6213 4475,6184 4480,5875 5484,5255 5666,5465 5902,5679 6142,5930 6373,6179 6550,6617 6354,7015 5508,6479 5485,6345 5474,6247 5485,6160 "
   id="polygon1706" />
    <polygon
   id="polygon1708"
   class="fil7 str1"
   points="5518,6077 5303,5938 5185,6072 5020,6160 4877,6219 4656,6236 4567,6213 4475,6184 4480,5875 5484,5255 5666,5465 5902,5679 6142,5930 6373,6179 6550,6617 6354,7015 5508,6479 5485,6345 5474,6247 5485,6160 " />
   </g><g
     id="g1716"
     style="clip-rule:evenodd;fill-rule:evenodd;image-rendering:optimizeQuality;shape-rendering:geometricPrecision;text-rendering:geometricPrecision">
    <polygon
   class="fil1"
   points="9793,5394 9858,5555 9839,5780 9852,5844 9891,5970 9897,6062 9905,6209 9880,6336 9835,6490 9746,6596 9629,6717 9501,6752 9457,6830 9464,6991 9483,7118 9555,7273 9645,7406 9774,7517 9803,7574 9852,7664 9839,7721 9852,7798 9832,7919 9827,8108 9821,8220 9796,8298 9792,8317 9758,8480 9731,8615 9733,8783 9733,8987 9715,9149 9650,9290 9555,9437 9452,9599 9336,9895 9342,9910 9347,9926 9353,9942 9358,9958 9364,9975 9370,9990 9375,10005 9381,10022 9386,10037 9393,10053 9400,10066 9407,10082 9414,10097 9423,10112 9430,10128 9437,10143 9445,10158 9454,10172 9464,10186 9473,10198 9485,10209 9497,10218 9513,10227 9531,10236 9551,10242 9569,10249 9598,10258 9532,10285 9412,10317 9334,10366 9280,10366 9222,10290 9118,10157 8709,10193 8148,9662 8072,9434 7850,9397 8167,8003 8888,5740 8912,5728 9040,5615 9104,5460 9130,5235 9155,5024 9173,4910 9260,4938 9347,4967 9426,5086 9522,5282 9659,5380 "
   id="polygon1712" />
    <polygon
   id="polygon1714"
   class="fil7 str1"
   points="9793,5394 9858,5555 9839,5780 9852,5844 9891,5970 9897,6062 9905,6209 9880,6336 9835,6490 9746,6596 9629,6717 9501,6752 9457,6830 9464,6991 9483,7118 9555,7273 9645,7406 9774,7517 9803,7574 9852,7664 9839,7721 9852,7798 9832,7919 9827,8108 9821,8220 9796,8298 9792,8317 9758,8480 9731,8615 9733,8783 9733,8987 9715,9149 9650,9290 9555,9437 9452,9599 9336,9895 9342,9910 9347,9926 9353,9942 9358,9958 9364,9975 9370,9990 9375,10005 9381,10022 9386,10037 9393,10053 9400,10066 9407,10082 9414,10097 9423,10112 9430,10128 9437,10143 9445,10158 9454,10172 9464,10186 9473,10198 9485,10209 9497,10218 9513,10227 9531,10236 9551,10242 9569,10249 9598,10258 9532,10285 9412,10317 9334,10366 9280,10366 9222,10290 9118,10157 8709,10193 8148,9662 8072,9434 7850,9397 8167,8003 8888,5740 8912,5728 9040,5615 9104,5460 9130,5235 9155,5024 9173,4910 9260,4938 9347,4967 9426,5086 9522,5282 9659,5380 " />
   </g><g
     id="g1722"
     style="clip-rule:evenodd;fill-rule:evenodd;image-rendering:optimizeQuality;shape-rendering:geometricPrecision;text-rendering:geometricPrecision">
    <polygon
   class="fil1"
   points="7372,9434 7439,9330 7850,9397 8167,8003 7664,7893 7430,8274 6634,8219 6673,8486 6598,8768 6714,8943 6913,9041 7107,9287 7155,9313 "
   id="polygon1718" />
    <polygon
   id="polygon1720"
   class="fil7 str1"
   points="7372,9434 7439,9330 7850,9397 8167,8003 7664,7893 7430,8274 6634,8219 6673,8486 6598,8768 6714,8943 6913,9041 7107,9287 7155,9313 " />
   </g><g
     id="g1728"
     style="clip-rule:evenodd;fill-rule:evenodd;image-rendering:optimizeQuality;shape-rendering:geometricPrecision;text-rendering:geometricPrecision">
    <polygon
   class="fil1"
   points="7518,6749 6550,6617 6373,6179 7076,5480 7134,5517 7178,5593 7222,5660 7250,5705 7366,5859 7445,6092 7536,6372 7595,6423 "
   id="polygon1724" />
    <polygon
   id="polygon1726"
   class="fil7 str1"
   points="7518,6749 6550,6617 6373,6179 7076,5480 7134,5517 7178,5593 7222,5660 7250,5705 7366,5859 7445,6092 7536,6372 7595,6423 " />
   </g><g
     id="g1734"
     style="clip-rule:evenodd;fill-rule:evenodd;image-rendering:optimizeQuality;shape-rendering:geometricPrecision;text-rendering:geometricPrecision">
    <polygon
   class="fil1"
   points="7595,6423 7665,6484 7761,6457 7793,6400 7805,6251 7825,6097 7888,6026 7967,6068 8082,6152 8179,6244 8334,6250 8475,6150 8591,6003 8623,6039 8719,5869 8796,5806 8888,5740 8167,8003 7664,7893 7371,7701 7518,6749 "
   id="polygon1730" />
    <polygon
   id="polygon1732"
   class="fil7 str1"
   points="7595,6423 7665,6484 7761,6457 7793,6400 7805,6251 7825,6097 7888,6026 7967,6068 8082,6152 8179,6244 8334,6250 8475,6150 8591,6003 8623,6039 8719,5869 8796,5806 8888,5740 8167,8003 7664,7893 7371,7701 7518,6749 " />
   </g></g><g
   inkscape:groupmode="layer"
   id="layer1"
   inkscape:label="Letras 1"
   style="display:inline"><path
     id="35"
     class="fil5"
     d="m 11955,11596 -190,-430 53,-78 462,32 -62,91 -100,-9 -150,220 42,93 z m -23,-251 104,-152 -188,-20 z"
     style="clip-rule:evenodd;fill-rule:evenodd;image-rendering:optimizeQuality;shape-rendering:geometricPrecision;text-rendering:geometricPrecision" /><path
     id="32"
     class="fil5"
     d="m 4084,12360 -254,-169 -168,264 255,169 56,-90 82,83 -31,49 c -24,38 -47,59 -70,64 -23,4 -54,-7 -93,-33 l -242,-161 c -40,-26 -62,-50 -67,-73 -5,-23 4,-54 28,-91 l 140,-220 c 24,-38 47,-59 70,-64 22,-4 53,6 93,33 l 242,160 c 39,27 61,51 67,74 5,24 -5,54 -28,91 l -25,40 -105,-48 z"
     style="clip-rule:evenodd;fill-rule:evenodd;image-rendering:optimizeQuality;shape-rendering:geometricPrecision;text-rendering:geometricPrecision" /><polygon
     id="33"
     class="fil5"
     points="4980,13168 4951,13238 4575,13075 4730,12701 4820,12740 4694,13044 "
     style="clip-rule:evenodd;fill-rule:evenodd;image-rendering:optimizeQuality;shape-rendering:geometricPrecision;text-rendering:geometricPrecision" /><path
     id="34"
     class="fil5"
     d="m 8736,13113 -253,69 65,245 252,-69 -22,-84 99,-6 12,46 c 9,36 9,62 -2,79 -10,17 -35,31 -74,41 l -240,66 c -38,11 -66,11 -83,2 -17,-9 -31,-31 -40,-67 l -54,-207 c -10,-36 -9,-62 1,-79 10,-16 35,-30 74,-41 l 240,-65 c 39,-11 67,-12 84,-3 17,10 31,32 40,68 l 10,37 -90,40 z"
     style="clip-rule:evenodd;fill-rule:evenodd;image-rendering:optimizeQuality;shape-rendering:geometricPrecision;text-rendering:geometricPrecision" /><path
     class="fil5"
     d="m 2635,2864 -179,183 91,93 179,-183 c 13,-14 21,-26 22,-35 1,-10 -4,-19 -14,-30 l -36,-37 c -10,-11 -20,-15 -29,-14 -9,1 -21,9 -34,23 z m 25,553 -342,-350 293,-300 c 27,-28 52,-43 75,-44 22,-2 45,9 69,33 l 76,78 c 23,24 34,47 32,71 -1,23 -16,48 -43,76 l -214,219 133,137 z"
     id="path1736"
     style="clip-rule:evenodd;fill-rule:evenodd;image-rendering:optimizeQuality;shape-rendering:geometricPrecision;text-rendering:geometricPrecision" /><path
     id="path1738"
     class="fil5"
     d="m 11616,11444 -184,188 175,180 184,-189 -60,-61 84,-57 33,34 c 25,26 38,49 37,69 -1,20 -16,45 -45,75 l -175,179 c -28,29 -52,44 -71,45 -20,0 -42,-12 -68,-38 l -148,-152 c -26,-26 -38,-49 -37,-69 1,-20 15,-44 44,-73 l 175,-179 c 29,-30 53,-45 72,-46 20,-1 42,12 68,38 l 27,27 -60,82 z"
     style="clip-rule:evenodd;fill-rule:evenodd;image-rendering:optimizeQuality;shape-rendering:geometricPrecision;text-rendering:geometricPrecision" /><path
     id="path1740"
     class="fil5"
     d="m 3029,2900 245,-210 -160,-195 -245,210 z m -220,-115 c -23,-28 -34,-52 -31,-71 2,-20 19,-43 50,-70 l 235,-202 c 31,-27 56,-39 75,-38 20,1 41,15 64,43 l 135,165 c 23,28 33,53 31,72 -2,20 -19,43 -50,69 l -235,202 c -31,27 -56,40 -76,39 -19,-1 -40,-16 -63,-44 z"
     style="clip-rule:evenodd;fill-rule:evenodd;image-rendering:optimizeQuality;shape-rendering:geometricPrecision;text-rendering:geometricPrecision" /><path
     id="path1742"
     class="fil5"
     d="m 11096,11904 -231,199 159,195 232,-199 -53,-65 -121,104 -46,-56 193,-166 88,107 c 23,29 34,53 31,72 -2,20 -19,43 -49,69 l -221,190 c -31,26 -56,39 -75,38 -20,-1 -41,-16 -64,-44 l -135,-164 c -23,-29 -33,-52 -31,-72 3,-20 19,-43 50,-69 l 221,-190 c 30,-26 55,-39 74,-38 19,1 40,14 61,40 l 7,9 -61,75 z"
     style="clip-rule:evenodd;fill-rule:evenodd;image-rendering:optimizeQuality;shape-rendering:geometricPrecision;text-rendering:geometricPrecision" /><polygon
     id="polygon1744"
     class="fil5"
     points="11451,12040 11196,11729 11270,11666 11525,11977 "
     style="clip-rule:evenodd;fill-rule:evenodd;image-rendering:optimizeQuality;shape-rendering:geometricPrecision;text-rendering:geometricPrecision" /><path
     id="path1746"
     class="fil5"
     d="m 3487,2208 -180,129 62,92 181,-130 c 14,-10 22,-19 24,-26 2,-8 0,-17 -6,-26 l -26,-38 c -7,-10 -14,-15 -22,-15 -8,-1 -19,4 -33,14 z m -70,460 -228,-333 293,-209 c 27,-19 49,-28 69,-27 18,2 36,14 51,37 l 53,78 c 16,22 21,43 16,62 -5,18 -21,37 -48,56 l -45,32 241,15 -114,82 -222,-28 -74,53 86,126 z"
     style="clip-rule:evenodd;fill-rule:evenodd;image-rendering:optimizeQuality;shape-rendering:geometricPrecision;text-rendering:geometricPrecision" /><path
     id="path1748"
     class="fil5"
     d="m 10554,12643 263,-188 -142,-208 -263,188 z m -209,-134 c -20,-30 -29,-55 -25,-74 4,-20 22,-41 56,-65 l 252,-181 c 33,-23 59,-34 78,-31 19,3 39,20 60,50 l 119,175 c 21,30 29,55 25,74 -4,20 -22,41 -55,65 l -252,180 c -33,24 -59,35 -78,32 -19,-3 -39,-19 -60,-50 z m 71,-234 -14,-187 83,-59 -20,211 z"
     style="clip-rule:evenodd;fill-rule:evenodd;image-rendering:optimizeQuality;shape-rendering:geometricPrecision;text-rendering:geometricPrecision" /><path
     id="path1750"
     class="fil5"
     d="m 3991,1793 161,286 239,-141 -161,-286 84,-50 152,269 c 18,32 24,57 18,76 -6,19 -27,39 -62,60 l -227,134 c -35,21 -62,29 -81,25 -19,-5 -37,-23 -55,-55 l -152,-268 z"
     style="clip-rule:evenodd;fill-rule:evenodd;image-rendering:optimizeQuality;shape-rendering:geometricPrecision;text-rendering:geometricPrecision" /><polygon
     id="polygon1752"
     class="fil5"
     points="5033,1701 4972,1730 4555,1627 4668,1875 4588,1913 4420,1546 4480,1517 4897,1616 4785,1372 4865,1334 "
     style="clip-rule:evenodd;fill-rule:evenodd;image-rendering:optimizeQuality;shape-rendering:geometricPrecision;text-rendering:geometricPrecision" /><polygon
     id="polygon1754"
     class="fil5"
     points="10446,12717 10477,12787 10108,12963 9940,12595 10028,12553 10165,12852 "
     style="clip-rule:evenodd;fill-rule:evenodd;image-rendering:optimizeQuality;shape-rendering:geometricPrecision;text-rendering:geometricPrecision" /><path
     id="path1756"
     class="fil5"
     d="m 5054,1692 86,-463 87,-33 360,298 -102,38 -77,-67 -246,91 -17,102 z m 122,-219 171,-64 -144,-126 z"
     style="clip-rule:evenodd;fill-rule:evenodd;image-rendering:optimizeQuality;shape-rendering:geometricPrecision;text-rendering:geometricPrecision" /><polygon
     id="polygon1758"
     class="fil5"
     points="9473,13211 9411,13235 9004,13095 9095,13352 9013,13383 8877,13002 8940,12978 9345,13114 9255,12861 9338,12830 "
     style="clip-rule:evenodd;fill-rule:evenodd;image-rendering:optimizeQuality;shape-rendering:geometricPrecision;text-rendering:geometricPrecision" /><path
     id="path1760"
     class="fil5"
     d="m 9616,13078 301,-112 -85,-238 -300,112 z m -168,-185 c -12,-34 -14,-61 -6,-78 9,-18 33,-33 71,-48 l 288,-107 c 39,-14 67,-18 84,-10 18,8 33,29 45,64 l 72,201 c 12,35 14,61 5,79 -9,17 -32,33 -70,47 l -288,107 c -39,15 -67,18 -84,10 -18,-7 -33,-29 -46,-64 z"
     style="clip-rule:evenodd;fill-rule:evenodd;image-rendering:optimizeQuality;shape-rendering:geometricPrecision;text-rendering:geometricPrecision" /><polygon
     id="polygon1762"
     class="fil5"
     points="6125,958 6143,1066 6364,1026 6378,1109 6158,1149 6178,1270 6560,1201 6576,1293 6084,1382 6000,895 6488,807 6502,890 "
     style="clip-rule:evenodd;fill-rule:evenodd;image-rendering:optimizeQuality;shape-rendering:geometricPrecision;text-rendering:geometricPrecision" /><polygon
     id="polygon1764"
     class="fil5"
     points="8018,13254 8033,13340 8220,13307 8232,13376 8045,13410 8062,13508 8389,13448 8402,13523 7979,13600 7910,13200 8328,13125 8341,13196 "
     style="clip-rule:evenodd;fill-rule:evenodd;image-rendering:optimizeQuality;shape-rendering:geometricPrecision;text-rendering:geometricPrecision" /><path
     id="path1766"
     class="fil5"
     d="m 6851,1225 124,-11 c 67,-6 114,-20 139,-43 25,-22 36,-58 32,-106 -4,-41 -18,-71 -42,-90 -24,-18 -59,-25 -106,-21 l -169,15 z m -91,85 -34,-404 265,-24 c 77,-7 137,5 181,36 44,31 68,79 74,144 5,67 -12,120 -52,158 -41,38 -105,60 -192,68 z"
     style="clip-rule:evenodd;fill-rule:evenodd;image-rendering:optimizeQuality;shape-rendering:geometricPrecision;text-rendering:geometricPrecision" /><polygon
     id="polygon1768"
     class="fil5"
     points="7684,13227 7719,13632 7606,13642 7571,13237 7350,13257 7343,13169 7899,13119 7906,13207 "
     style="clip-rule:evenodd;fill-rule:evenodd;image-rendering:optimizeQuality;shape-rendering:geometricPrecision;text-rendering:geometricPrecision" /><path
     id="path1770"
     class="fil5"
     d="m 7515,873 -28,328 275,25 28,-329 98,9 -27,308 c -3,37 -12,61 -28,74 -15,12 -44,16 -84,13 l -261,-24 c -41,-3 -67,-12 -80,-27 -13,-15 -18,-41 -15,-78 l 27,-308 z"
     style="clip-rule:evenodd;fill-rule:evenodd;image-rendering:optimizeQuality;shape-rendering:geometricPrecision;text-rendering:geometricPrecision" /><path
     id="path1772"
     class="fil5"
     d="m 6603,13537 124,11 c 67,6 115,0 144,-18 29,-18 45,-50 49,-98 4,-42 -5,-74 -25,-96 -21,-23 -55,-36 -101,-40 l -169,-15 z m -104,67 34,-404 266,24 c 76,7 134,29 171,68 38,38 55,89 49,154 -6,67 -32,116 -78,146 -46,30 -113,41 -201,34 z"
     style="clip-rule:evenodd;fill-rule:evenodd;image-rendering:optimizeQuality;shape-rendering:geometricPrecision;text-rendering:geometricPrecision" /><path
     id="path1774"
     class="fil5"
     d="m 8394,1059 -257,-46 -43,250 257,46 14,-84 93,37 -9,46 c -6,37 -17,60 -33,71 -17,11 -45,13 -85,6 l -244,-44 c -39,-7 -65,-19 -77,-35 -12,-15 -14,-42 -8,-78 l 36,-211 c 7,-36 18,-60 34,-70 16,-11 44,-13 84,-6 l 244,44 c 40,8 66,19 78,35 11,15 14,41 8,77 l -7,39 -98,-3 z"
     style="clip-rule:evenodd;fill-rule:evenodd;image-rendering:optimizeQuality;shape-rendering:geometricPrecision;text-rendering:geometricPrecision" /><path
     id="path1776"
     class="fil5"
     d="m 5849,13505 300,-357 91,16 167,442 -107,-19 -34,-97 -258,-46 -64,78 z m 212,-127 179,32 -63,-183 z"
     style="clip-rule:evenodd;fill-rule:evenodd;image-rendering:optimizeQuality;shape-rendering:geometricPrecision;text-rendering:geometricPrecision" /><path
     id="path1778"
     class="fil5"
     d="m 8487,1412 330,-330 90,25 128,455 -105,-29 -25,-99 -254,-70 -70,73 z m 223,-108 175,48 -46,-188 z"
     style="clip-rule:evenodd;fill-rule:evenodd;image-rendering:optimizeQuality;shape-rendering:geometricPrecision;text-rendering:geometricPrecision" /><path
     id="path1780"
     class="fil5"
     d="m 5430,13313 120,33 c 66,18 115,21 147,9 31,-13 53,-42 65,-89 11,-40 8,-73 -9,-99 -17,-26 -48,-45 -93,-57 l -165,-46 z m -113,47 103,-391 257,70 c 74,21 127,53 158,98 31,44 38,98 22,160 -18,66 -52,109 -102,131 -51,21 -119,20 -204,-3 z"
     style="clip-rule:evenodd;fill-rule:evenodd;image-rendering:optimizeQuality;shape-rendering:geometricPrecision;text-rendering:geometricPrecision" /><path
     id="path1782"
     class="fil5"
     d="m 9495,1380 -245,-91 -85,238 245,91 29,-81 85,53 -16,45 c -12,35 -27,56 -45,64 -18,8 -46,4 -85,-10 l -232,-87 c -38,-14 -62,-29 -70,-47 -9,-18 -8,-44 5,-79 l 71,-201 c 12,-35 28,-56 45,-64 18,-7 46,-4 84,10 l 233,87 c 38,14 62,30 71,48 9,18 7,44 -5,78 l -13,37 -97,-21 z"
     style="clip-rule:evenodd;fill-rule:evenodd;image-rendering:optimizeQuality;shape-rendering:geometricPrecision;text-rendering:geometricPrecision" /><polygon
     id="polygon1784"
     class="fil5"
     points="5068,13262 5204,12881 5294,12915 5158,13296 "
     style="clip-rule:evenodd;fill-rule:evenodd;image-rendering:optimizeQuality;shape-rendering:geometricPrecision;text-rendering:geometricPrecision" /><polygon
     id="polygon1786"
     class="fil5"
     points="9538,1750 9706,1382 9793,1423 9626,1791 "
     style="clip-rule:evenodd;fill-rule:evenodd;image-rendering:optimizeQuality;shape-rendering:geometricPrecision;text-rendering:geometricPrecision" /><path
     id="path1788"
     class="fil5"
     d="m 9812,1791 285,148 112,-226 -284,-148 z m 17,-252 c 17,-33 34,-52 53,-58 18,-5 46,2 82,20 l 273,143 c 36,19 58,37 64,56 7,18 2,44 -15,77 l -95,191 c -16,33 -34,52 -53,58 -18,5 -46,-2 -81,-20 l -274,-143 c -36,-19 -57,-37 -64,-56 -6,-18 -1,-44 15,-77 z m 235,-44 155,-101 90,47 -192,81 z"
     style="clip-rule:evenodd;fill-rule:evenodd;image-rendering:optimizeQuality;shape-rendering:geometricPrecision;text-rendering:geometricPrecision" /><polygon
     id="polygon1790"
     class="fil5"
     points="10636,2354 10578,2319 10421,1911 10287,2147 10211,2103 10410,1751 10467,1785 10627,2191 10759,1957 10835,2002 "
     style="clip-rule:evenodd;fill-rule:evenodd;image-rendering:optimizeQuality;shape-rendering:geometricPrecision;text-rendering:geometricPrecision" /><path
     id="path1792"
     class="fil5"
     d="m 4022,12766 402,-231 81,48 9,473 -94,-55 v -103 l -228,-134 -86,51 z m 242,-45 158,93 2,-194 z"
     style="clip-rule:evenodd;fill-rule:evenodd;image-rendering:optimizeQuality;shape-rendering:geometricPrecision;text-rendering:geometricPrecision" /><path
     id="path1794"
     class="fil5"
     d="m 11456,2607 -199,-171 -160,195 199,171 54,-66 63,80 -30,36 c -23,29 -45,43 -64,44 -20,1 -45,-12 -77,-39 l -189,-162 c -30,-26 -47,-49 -50,-69 -2,-20 8,-44 32,-73 l 135,-164 c 23,-28 44,-43 63,-44 19,-1 44,12 75,39 l 189,162 c 32,27 49,51 51,70 3,20 -7,44 -30,72 l -25,30 -84,-53 z"
     style="clip-rule:evenodd;fill-rule:evenodd;image-rendering:optimizeQuality;shape-rendering:geometricPrecision;text-rendering:geometricPrecision" /><path
     id="path1796"
     class="fil5"
     d="m 11463,2964 226,232 176,-180 -226,-231 z m 93,-234 c 25,-27 47,-39 67,-39 19,1 43,16 72,46 l 217,222 c 29,29 44,54 44,74 1,19 -12,42 -37,68 l -149,152 c -25,26 -48,39 -67,38 -19,-1 -43,-16 -72,-45 l -217,-222 c -28,-30 -43,-54 -44,-74 -1,-20 12,-43 37,-69 z"
     style="clip-rule:evenodd;fill-rule:evenodd;image-rendering:optimizeQuality;shape-rendering:geometricPrecision;text-rendering:geometricPrecision"
     inkscape:label="path1796O" /><polygon
     id="polygon1798"
     class="fil5"
     points="12021,3720 11978,3667 11967,3229 11762,3405 11706,3336 12010,3075 12052,3127 12067,3564 12269,3391 12325,3459 "
     style="clip-rule:evenodd;fill-rule:evenodd;image-rendering:optimizeQuality;shape-rendering:geometricPrecision;text-rendering:geometricPrecision"
     inkscape:label="polygonN" /></g>
</svg>
